<?xml version="1.0"?>
<svg xmlns="http://www.w3.org/2000/svg" width="271" height="100" viewBox="0 0 271 100" fill="none">
<g clip-path="url(#clip0)">
<g clip-path="url(#clip1)">
<path d="M80.6516 64.6975H101.057V67.6445H80.6746L80.6516 64.6975ZM80.6516 34.4985H101.034V37.4455H80.6746L80.6516 34.4985ZM80.6516 49.1528H100.213V52.1228H80.6746L80.6516 49.1528Z" fill="#344C72"/>
<path d="M108.295 34.4985H111.739V64.6975H126.628V67.6445H108.261L108.295 34.4985Z" fill="#344C72"/>
<path d="M145.599 32.9478L160.373 67.6447H156.608L145.599 41.306L134.475 67.6447H130.709L145.599 32.9478Z" fill="#344C72"/>
<path d="M166.222 34.4986H178.029C179.064 34.4965 180.096 34.5772 181.118 34.7398C182.465 34.9599 183.75 35.4672 184.885 36.2274C186.02 36.9876 186.978 37.9829 187.695 39.1459C188.703 40.795 189.215 42.6995 189.171 44.6319C189.19 46.0315 188.949 47.4225 188.459 48.7335C188.034 49.8805 187.421 50.9484 186.645 51.893C185.949 52.737 185.095 53.4375 184.131 53.9553C183.263 54.4269 182.312 54.7236 181.33 54.8285C182.73 56.9884 184.112 59.1292 185.474 61.2509C186.836 63.3725 188.195 65.5037 189.549 67.6445H185.428C184.097 65.5612 182.771 63.474 181.45 61.383L177.473 55.064H169.678V67.633H166.234L166.222 34.4986ZM177.938 52.1228C178.63 52.1228 179.273 52.1056 179.866 52.0711C180.521 52.02 181.167 51.8967 181.795 51.7034C182.386 51.5156 182.927 51.1976 183.379 50.7728C183.873 50.3124 184.291 49.7774 184.619 49.1873C184.981 48.5305 185.257 47.8296 185.44 47.1021C185.64 46.3234 185.74 45.5222 185.738 44.7181C185.775 43.3572 185.461 42.0098 184.826 40.8061C184.268 39.7798 183.432 38.9317 182.415 38.3589C181.78 38.0209 181.096 37.7844 180.389 37.6581C179.603 37.5149 178.805 37.4437 178.006 37.4455H169.678V52.1228H177.938Z" fill="#344C72"/>
<path d="M195.789 34.4985H199.233V67.6445H195.789V34.4985Z" fill="#344C72"/>
<path d="M220.023 32.9478L234.797 67.6447H231.032L220.023 41.306L208.933 67.6447H205.168L220.023 32.9478Z" fill="#344C72"/>
<path d="M240.646 33.4128L265.058 59.9985V34.4986H268.502V68.8221L244.102 42.1905V67.6675H240.658L240.646 33.4128Z" fill="#344C72"/>
<path d="M0 46.0853L43.0896 6L43.3881 17.4718L0 46.0853Z" fill="#EF4C4B"/>
<path d="M0 46.0854L53.829 22.3261L43.3881 17.4719L0 46.0854Z" fill="#EF5555"/>
<path d="M43.0896 6L53.829 22.326L43.3881 17.4718L43.0896 6Z" fill="#F05F61"/>
<path d="M0 54.9148L43.0896 95.0001L43.3881 83.5283L0 54.9148Z" fill="#EF5555"/>
<path d="M0 54.9148L53.829 78.6742L43.3881 83.5283L0 54.9148Z" fill="#EF4C4B"/>
<path d="M43.0896 95L53.829 78.6741L43.3881 83.5282L43.0896 95Z" fill="#F05F61"/>
<path d="M2.22144 51.3417L60.4472 60.8145L54.1735 51.2039L2.22144 51.3417Z" fill="#EF5555"/>
<path d="M2.22144 51.3416L60.4013 41.2715L54.1735 51.2038L2.22144 51.3416Z" fill="#EF4C4B"/>
<path d="M60.4471 60.8144L60.4012 41.2715L54.1733 51.2038L60.4471 60.8144Z" fill="#F05F61"/>
</g>
</g>
<defs>
<clipPath id="clip0">
<rect width="271" height="100" fill="white"/>
</clipPath>
<clipPath id="clip1">
<rect width="284" height="89" fill="white" transform="translate(0 6)"/>
</clipPath>
</defs>
</svg>
