<?xml version="1.0"?>
<svg xmlns="http://www.w3.org/2000/svg" width="271" height="100" viewBox="0 0 271 100" fill="none">
<g clip-path="url(#clip0)">
<g clip-path="url(#clip1)">
<path d="M81.6528 63.6478H102.076V66.6206H81.6766L81.6528 63.6478ZM81.6528 33.4736H102.076V36.4465H81.6766L81.6528 33.4736ZM81.6528 48.1178H101.214V51.0906H81.6528V48.1178Z" fill="white"/>
<path d="M109.294 33.4736H112.778V63.6478H127.642V66.6206H109.294V33.4736Z" fill="white"/>
<path d="M146.597 31.928L161.378 66.5971H157.609L146.597 40.2757L135.479 66.5971H131.715L146.597 31.928Z" fill="white"/>
<path d="M167.223 33.4736H179.031C180.066 33.4724 181.1 33.5539 182.122 33.7174C183.474 33.9328 184.764 34.4373 185.903 35.1967C187.042 35.956 188.003 36.9522 188.722 38.1172C189.727 39.7661 190.239 41.6685 190.197 43.5991C190.214 44.9984 189.974 46.389 189.489 47.7016C189.061 48.8454 188.446 49.9102 187.67 50.8528C186.975 51.6992 186.121 52.4003 185.155 52.9159C184.284 53.3884 183.328 53.6854 182.342 53.7899C183.746 55.9462 185.133 58.0847 186.504 60.2053C187.876 62.3259 189.233 64.4564 190.577 66.5969H186.457C185.129 64.5159 183.805 62.429 182.485 60.3361C181.165 58.2432 179.839 56.1424 178.507 54.0337H170.677V66.5969H167.223V33.4736ZM178.942 51.0906C179.637 51.0906 180.279 51.0906 180.868 51.0312C181.522 50.9844 182.168 50.8627 182.794 50.6685C183.387 50.4816 183.93 50.1624 184.382 49.735C184.874 49.2755 185.291 48.7419 185.619 48.1535C185.985 47.5002 186.261 46.8001 186.439 46.0725C186.639 45.2956 186.739 44.4964 186.736 43.6942C186.783 42.3356 186.478 40.9879 185.85 39.782C185.29 38.7575 184.454 37.9109 183.436 37.3383C182.801 37.0015 182.117 36.7648 181.409 36.6367C180.624 36.4955 179.828 36.4258 179.031 36.4286H170.677V51.0906H178.942Z" fill="white"/>
<path d="M196.796 33.4736H200.251V66.5969H196.796V33.4736Z" fill="white"/>
<path d="M221.025 31.928L235.8 66.5971H232.036L221.025 40.2757L209.906 66.5971H206.125L221.025 31.928Z" fill="white"/>
<path d="M241.65 32.3916L266.063 58.9746V33.4737H269.518V67.7682L245.105 41.1436V66.5969H241.65V32.3916Z" fill="white"/>
<path d="M44.0881 5L54.826 21.3149L44.3914 16.4632L44.0881 5Z" fill="#F2F2F2"/>
<path d="M44.0881 93.929L54.826 77.6201L44.3914 82.4658L44.0881 93.929Z" fill="#F2F2F2"/>
<path d="M1 45.0559L44.0881 5L44.3914 16.4632L1 45.0559Z" fill="white"/>
<path d="M1 45.0558L54.826 21.3148L44.3914 16.4631L1 45.0558Z" fill="#F6F7F7"/>
<path d="M1 53.8733L44.0881 93.9292L44.3914 82.4659L1 53.8733Z" fill="#F6F7F7"/>
<path d="M1 53.8733L54.826 77.6202L44.3914 82.4659L1 53.8733Z" fill="white"/>
<path d="M3.22363 50.3059L61.4432 59.7714L55.1706 50.1692L3.22363 50.3059Z" fill="#F6F7F7"/>
<path d="M3.22363 50.306L61.4021 40.24L55.171 50.1692L3.22363 50.306Z" fill="white"/>
<path d="M61.4436 59.7715L61.4019 40.24L55.1709 50.1692L61.4436 59.7715Z" fill="#F2F2F2"/>
</g>
</g>
<defs>
<clipPath id="clip0">
<rect width="271" height="100" fill="white"/>
</clipPath>
<clipPath id="clip1">
<rect width="284" height="88.9291" fill="white" transform="translate(1 5)"/>
</clipPath>
</defs>
</svg>
